<svg width="29" height="29" viewBox="0 0 29 29" fill="none" xmlns="http://www.w3.org/2000/svg">
<path d="M20.5039 15.6846C19.9961 16.1045 19.5615 16.5732 19.2002 17.0908C18.3896 16.6807 17.5449 16.3779 16.666 16.1826C15.7871 15.9873 14.8887 15.8848 13.9707 15.875C12.916 15.875 11.9102 16.0068 10.9531 16.2705C9.99609 16.5342 9.09766 16.9053 8.25781 17.3838C7.41797 17.8623 6.66602 18.4434 6.00195 19.127C5.33789 19.8105 4.75684 20.5674 4.25879 21.3975C3.76074 22.2275 3.38965 23.1309 3.14551 24.1074C2.90137 25.084 2.76953 26.0898 2.75 27.125H0.875C0.875 25.6992 1.08496 24.3271 1.50488 23.0088C1.9248 21.6904 2.53027 20.4844 3.32129 19.3906C4.1123 18.2969 5.05469 17.3398 6.14844 16.5195C7.24219 15.6992 8.48242 15.0693 9.86914 14.6299C9.3418 14.2783 8.87305 13.873 8.46289 13.4141C8.05273 12.9551 7.70117 12.457 7.4082 11.9199C7.11523 11.3828 6.89063 10.8164 6.73438 10.2207C6.57812 9.625 6.5 9.00977 6.5 8.375C6.5 7.33984 6.69531 6.36816 7.08594 5.45996C7.47656 4.55176 8.01367 3.76074 8.69727 3.08691C9.38086 2.41309 10.1768 1.87598 11.085 1.47559C11.9932 1.0752 12.9648 0.875 14 0.875C15.0352 0.875 16.0068 1.07031 16.915 1.46094C17.8232 1.85156 18.6143 2.38867 19.2881 3.07227C19.9619 3.75586 20.499 4.55176 20.8994 5.45996C21.2998 6.36816 21.5 7.33984 21.5 8.375C21.5 9.00977 21.4219 9.625 21.2656 10.2207C21.1094 10.8164 20.8896 11.3877 20.6064 11.9346C20.3232 12.4814 19.9668 12.9795 19.5371 13.4287C19.1074 13.8779 18.6338 14.2832 18.1162 14.6445C18.5361 14.7812 18.9414 14.9326 19.332 15.0986C19.7227 15.2646 20.1133 15.46 20.5039 15.6846ZM8.375 8.375C8.375 9.15625 8.52148 9.88379 8.81445 10.5576C9.10742 11.2314 9.50781 11.8271 10.0156 12.3447C10.5234 12.8623 11.1191 13.2676 11.8027 13.5605C12.4863 13.8535 13.2188 14 14 14C14.7715 14 15.499 13.8535 16.1826 13.5605C16.8662 13.2676 17.4619 12.8672 17.9697 12.3594C18.4775 11.8516 18.8828 11.2559 19.1855 10.5723C19.4883 9.88867 19.6348 9.15625 19.625 8.375C19.625 7.60352 19.4785 6.87598 19.1855 6.19238C18.8926 5.50879 18.4922 4.91309 17.9844 4.40527C17.4766 3.89746 16.876 3.49219 16.1826 3.18945C15.4893 2.88672 14.7617 2.74023 14 2.75C13.2188 2.75 12.4912 2.89648 11.8174 3.18945C11.1436 3.48242 10.5479 3.88281 10.0303 4.39062C9.5127 4.89844 9.10742 5.49902 8.81445 6.19238C8.52148 6.88574 8.375 7.61328 8.375 8.375ZM24.3418 15.8604C24.9863 15.8604 25.5967 15.9824 26.1729 16.2266C26.749 16.4707 27.2471 16.8076 27.667 17.2373C28.0869 17.667 28.4238 18.165 28.6777 18.7314C28.9316 19.2979 29.0586 19.9082 29.0586 20.5625C29.0586 21.207 28.9365 21.8125 28.6924 22.3789C28.4482 22.9453 28.1113 23.4434 27.6816 23.873C27.252 24.3027 26.749 24.6396 26.1729 24.8838C25.5967 25.1279 24.9863 25.2549 24.3418 25.2646C23.3945 25.2646 22.5303 25.001 21.749 24.4736L17.4717 28.751C17.2861 28.9365 17.0664 29.0293 16.8125 29.0293C16.5586 29.0293 16.3389 28.9365 16.1533 28.751C15.9678 28.5654 15.875 28.3457 15.875 28.0918C15.875 27.8379 15.9678 27.6182 16.1533 27.4326L20.4307 23.1553C19.9033 22.374 19.6396 21.5098 19.6396 20.5625C19.6396 19.918 19.7617 19.3125 20.0059 18.7461C20.25 18.1797 20.5869 17.6816 21.0166 17.252C21.4463 16.8223 21.9443 16.4854 22.5107 16.2412C23.0771 15.9971 23.6875 15.8701 24.3418 15.8604ZM24.3418 23.3896C24.7324 23.3896 25.0986 23.3164 25.4404 23.1699C25.7822 23.0234 26.0801 22.8232 26.334 22.5693C26.5879 22.3154 26.793 22.0127 26.9492 21.6611C27.1055 21.3096 27.1836 20.9434 27.1836 20.5625C27.1836 20.1719 27.1104 19.8057 26.9639 19.4639C26.8174 19.1221 26.6123 18.8242 26.3486 18.5703C26.085 18.3164 25.7871 18.1113 25.4551 17.9551C25.123 17.7988 24.752 17.7256 24.3418 17.7354C23.9512 17.7354 23.585 17.8086 23.2432 17.9551C22.9014 18.1016 22.6035 18.3066 22.3496 18.5703C22.0957 18.834 21.8906 19.1318 21.7344 19.4639C21.5781 19.7959 21.5049 20.1621 21.5146 20.5625C21.5146 20.9531 21.5879 21.3193 21.7344 21.6611C21.8809 22.0029 22.0811 22.3008 22.335 22.5547C22.5889 22.8086 22.8916 23.0137 23.2432 23.1699C23.5947 23.3262 23.9609 23.3994 24.3418 23.3896Z" fill="#521D7A"/>
</svg>
