<svg width="30" height="30" viewBox="0 0 30 30" fill="none" xmlns="http://www.w3.org/2000/svg">
<path opacity="0.25" d="M7.5 28.75H2.5C2.16848 28.75 1.85054 28.6183 1.61612 28.3839C1.3817 28.1495 1.25 27.8315 1.25 27.5V17.5C1.25 17.1685 1.3817 16.8505 1.61612 16.6161C1.85054 16.3817 2.16848 16.25 2.5 16.25H7.5C7.83152 16.25 8.14946 16.3817 8.38388 16.6161C8.6183 16.8505 8.75 17.1685 8.75 17.5V27.5C8.75 27.8315 8.6183 28.1495 8.38388 28.3839C8.14946 28.6183 7.83152 28.75 7.5 28.75Z" fill="#521D7A"/>
<path d="M17.5 28.75H12.5C12.1685 28.75 11.8505 28.6183 11.6161 28.3839C11.3817 28.1495 11.25 27.8315 11.25 27.5V2.5C11.25 2.16848 11.3817 1.85054 11.6161 1.61612C11.8505 1.3817 12.1685 1.25 12.5 1.25H17.5C17.8315 1.25 18.1495 1.3817 18.3839 1.61612C18.6183 1.85054 18.75 2.16848 18.75 2.5V27.5C18.75 27.8315 18.6183 28.1495 18.3839 28.3839C18.1495 28.6183 17.8315 28.75 17.5 28.75Z" fill="#521D7A"/>
<path opacity="0.5" d="M27.5 28.75H22.5C22.1685 28.75 21.8505 28.6183 21.6161 28.3839C21.3817 28.1495 21.25 27.8315 21.25 27.5V12.5C21.25 12.1685 21.3817 11.8505 21.6161 11.6161C21.8505 11.3817 22.1685 11.25 22.5 11.25H27.5C27.8315 11.25 28.1495 11.3817 28.3839 11.6161C28.6183 11.8505 28.75 12.1685 28.75 12.5V27.5C28.75 27.8315 28.6183 28.1495 28.3839 28.3839C28.1495 28.6183 27.8315 28.75 27.5 28.75Z" fill="#521D7A"/>
</svg>
