<svg width="38" height="39" viewBox="0 0 38 39" fill="none" xmlns="http://www.w3.org/2000/svg">
<path fill-rule="evenodd" clip-rule="evenodd" d="M8.01527 20.8025C8.82405 20.0237 8.86052 18.7249 8.08167 17.9161C8.86052 18.7249 8.83079 20.0172 8.01527 20.8025ZM18.6584 28.8993L27.1198 37.6859C27.8987 38.4947 29.1912 38.5137 30.0067 37.7284L36.8977 31.0925C37.7132 30.3071 37.7429 29.0148 36.9641 28.206L29.9129 20.8839C29.1341 20.0751 29.1638 18.7828 29.9793 17.9975L36.6242 11.5985C37.4397 10.8132 37.4694 9.52089 36.6906 8.7121L30.3445 2.12215C29.5657 1.31337 28.2732 1.29436 27.4577 2.0797L19.3362 9.90062C19.3362 9.90062 22.3363 15.4789 19.383 18.3229C17.7068 19.9371 17.8782 20.7723 18.2386 22.5289C18.5132 23.8671 18.8976 25.74 18.6584 28.8993Z" fill="#A2C7D6"/>
<path d="M19.383 18.3229C22.3363 15.4789 19.3362 9.90062 19.3362 9.90062L11.3448 1.60216C10.566 0.793376 9.27349 0.774371 8.45797 1.55971L1.56699 8.19564C0.751468 8.98098 0.721737 10.2733 1.50059 11.0821L8.08167 17.9161C8.86052 18.7249 8.82405 20.0237 8.01527 20.8025L0.878188 27.6754C0.0626642 28.4608 0.0329338 29.7531 0.811784 30.5618L7.15783 37.1518C7.93668 37.9606 9.22918 37.9796 10.0447 37.1942L18.6584 28.8993C18.8976 25.74 18.5132 23.8671 18.2386 22.5289C17.8782 20.7723 17.7068 19.9371 19.383 18.3229Z" fill="#9D8ACC"/>
</svg>
