<svg width="36" height="35" viewBox="0 0 36 35" fill="none" xmlns="http://www.w3.org/2000/svg">
<path d="M31.323 7.37583C29.7177 6.86965 27.9532 6.65271 26.2611 6.65271C23.4409 6.65271 20.4038 7.23121 18.3068 8.82208C16.2097 7.23121 13.1726 6.65271 10.3524 6.65271C7.5322 6.65271 4.49507 7.23121 2.39801 8.82208V30.0096C2.39801 30.3712 2.75957 30.7328 3.12114 30.7328C3.26576 30.7328 3.33807 30.6605 3.4827 30.6605C5.43514 29.7204 8.25532 29.0696 10.3524 29.0696C13.1726 29.0696 16.2097 29.6481 18.3068 31.239C20.2592 30.0096 23.8025 29.0696 26.2611 29.0696C28.6474 29.0696 31.1061 29.5035 33.1308 30.5881C33.2754 30.6605 33.3478 30.6605 33.4924 30.6605C33.8539 30.6605 34.2155 30.2989 34.2155 29.9373V8.82208C33.3478 8.17127 32.4077 7.7374 31.323 7.37583ZM5.29051 26.9002V10.2683C6.88139 9.76215 8.61689 9.54521 10.3524 9.54521C12.2904 9.54521 14.8791 10.1382 16.8605 10.977V27.6089C14.8791 26.77 12.2904 26.1771 10.3524 26.1771C8.61689 26.1771 6.88139 26.394 5.29051 26.9002ZM31.323 26.9002C29.7321 26.394 27.9966 26.1771 26.2611 26.1771C24.3232 26.1771 21.7344 26.77 19.753 27.6089V10.977C21.7344 10.1237 24.3232 9.54521 26.2611 9.54521C27.9966 9.54521 29.7321 9.76215 31.323 10.2683V26.9002Z" fill="#F0536E"/>
<path opacity="0.3" d="M16.8605 10.977C14.8792 10.1382 12.2904 9.54523 10.3524 9.54523C8.6169 9.54523 6.8814 9.76216 5.29053 10.2684V26.9002C6.8814 26.394 8.6169 26.1771 10.3524 26.1771C12.2904 26.1771 14.8792 26.7701 16.8605 27.6089V10.977Z" fill="#F0536E"/>
<path d="M26.2612 15.3302C27.5339 15.3302 28.7632 15.4604 29.8768 15.7062V13.5079C28.7342 13.291 27.5049 13.1608 26.2612 13.1608C24.41 13.1608 22.7034 13.3922 21.1993 13.8406V16.1112C22.6311 15.605 24.3521 15.3302 26.2612 15.3302ZM26.2612 19.1772C27.5339 19.1772 28.7632 19.3074 29.8768 19.5533V17.355C28.7342 17.138 27.5049 17.0079 26.2612 17.0079C24.41 17.0079 22.7034 17.2393 21.1993 17.6876V19.9582C22.6311 19.4665 24.3521 19.1772 26.2612 19.1772ZM26.2612 23.0387C27.5339 23.0387 28.7632 23.1689 29.8768 23.4147V21.2164C28.7342 20.9995 27.5049 20.8693 26.2612 20.8693C24.41 20.8693 22.7034 21.1007 21.1993 21.5491V23.8197C22.6311 23.3135 24.3521 23.0387 26.2612 23.0387Z" fill="#F0536E"/>
</svg>
