<svg width="30" height="30" viewBox="0 0 30 30" fill="none" xmlns="http://www.w3.org/2000/svg">
<path d="M4.68381 19.5415H4.88725V19.6432C4.88725 21.0939 5.46353 22.4852 6.48933 23.511C7.51513 24.5368 8.9064 25.113 10.3571 25.113H12.316V25.3165H10.3571C8.85245 25.3165 7.40942 24.7188 6.34548 23.6548C5.28153 22.5909 4.68381 21.1478 4.68381 19.6432V19.5415Z" stroke="#808080" stroke-width="1.65375"/>
<path d="M23.4595 10.4593H23.2561V10.3576C23.2561 9.63927 23.1146 8.928 22.8397 8.26436C22.5648 7.60073 22.1619 6.99774 21.654 6.48982C21.1461 5.9819 20.5431 5.57899 19.8794 5.3041C19.2158 5.02922 18.5045 4.88774 17.7862 4.88774H15.8273V4.6843H17.7862C19.2909 4.6843 20.7339 5.28202 21.7978 6.34596C22.8618 7.40991 23.4595 8.85293 23.4595 10.3576V10.4593Z" stroke="#808080" stroke-width="1.65375"/>
<path d="M3.03031 14.1735H2.82687V13.1432C2.82687 12.6237 3.03326 12.1254 3.40063 11.758C3.76799 11.3907 4.26625 11.1843 4.78578 11.1843H10.3573C10.8769 11.1843 11.3751 11.3907 11.7425 11.758C12.1099 12.1254 12.3163 12.6237 12.3163 13.1432V14.1735H12.1128V13.1432C12.1128 12.6776 11.9279 12.2311 11.5987 11.9019C11.2694 11.5727 10.8229 11.3877 10.3573 11.3877H4.78578C4.3202 11.3877 3.87369 11.5727 3.54448 11.9019L4.04564 12.4031L3.54448 11.9019C3.21527 12.2311 3.03031 12.6776 3.03031 13.1432V14.1735Z" stroke="#808080" stroke-width="1.65375"/>
<path d="M5.67339 3.81646L6.25808 4.40115L5.67339 3.81646C5.17003 4.31982 4.88725 5.00252 4.88725 5.71438C4.88725 6.24524 5.04467 6.76417 5.33959 7.20557C5.63452 7.64696 6.05372 7.99098 6.54416 8.19413C7.03461 8.39728 7.57429 8.45044 8.09495 8.34687C8.61561 8.24331 9.09386 7.98767 9.46923 7.6123C9.8446 7.23693 10.1002 6.75867 10.2038 6.23802C10.3074 5.71736 10.2542 5.17768 10.0511 4.68723C9.84791 4.19678 9.50389 3.77759 9.0625 3.48266C8.62111 3.18773 8.10217 3.03032 7.57131 3.03032C6.85945 3.03032 6.17675 3.3131 5.67339 3.81646ZM5.52954 7.75615L4.94485 8.34084L5.52954 7.75615C4.98803 7.21464 4.68381 6.48019 4.68381 5.71438C4.68381 5.14329 4.85316 4.58502 5.17044 4.11017C5.48772 3.63532 5.93869 3.26522 6.46631 3.04667C6.99393 2.82813 7.57452 2.77094 8.13464 2.88236C8.69476 2.99377 9.20926 3.26878 9.61309 3.67261C10.0169 4.07643 10.2919 4.59094 10.4033 5.15106C10.5147 5.71118 10.4576 6.29176 10.239 6.81938C10.0205 7.347 9.65037 7.79797 9.17552 8.11525C8.70068 8.43253 8.14241 8.60188 7.57131 8.60188C6.8055 8.60188 6.07105 8.29767 5.52954 7.75615Z" stroke="#808080" stroke-width="1.65375"/>
<path d="M19.6427 24.1845H25.2143C25.7338 24.1845 26.2321 24.3909 26.5994 24.7583C26.9668 25.1257 27.1732 25.6239 27.1732 26.1435V27.1738H26.9698V26.1435C26.9698 25.6779 26.7848 25.2314 26.4556 24.9021C26.1264 24.5729 25.6799 24.388 25.2143 24.388H19.6427C19.1771 24.388 18.7306 24.5729 18.4014 24.9021C18.0722 25.2314 17.8872 25.6779 17.8872 26.1435V27.1738H17.6838V26.1435C17.6838 25.6239 17.8902 25.1257 18.2576 24.7583C18.6249 24.3909 19.1232 24.1845 19.6427 24.1845Z" stroke="#808080" stroke-width="1.65375"/>
<path d="M25.3449 17.6099L26.1088 17.2934L25.3449 17.6099C25.5634 18.1375 25.6206 18.7181 25.5092 19.2782C25.3978 19.8383 25.1227 20.3528 24.7189 20.7566C24.3151 21.1605 23.8006 21.4355 23.2405 21.5469C22.6804 21.6583 22.0998 21.6011 21.5721 21.3826L21.2557 22.1465L21.5721 21.3826C21.0445 21.164 20.5936 20.7939 20.2763 20.3191C19.959 19.8442 19.7896 19.286 19.7896 18.7149C19.7896 17.9491 20.0939 17.2146 20.6354 16.6731C21.1769 16.1316 21.9113 15.8274 22.6771 15.8274C23.2482 15.8274 23.8065 15.9967 24.2814 16.314C24.7562 16.6313 25.1263 17.0822 25.3449 17.6099ZM24.9089 20.2061C25.2038 19.7647 25.3612 19.2457 25.3612 18.7149C25.3612 18.003 25.0784 17.3203 24.5751 16.8169C24.0717 16.3136 23.389 16.0308 22.6771 16.0308C22.1463 16.0308 21.6274 16.1882 21.186 16.4831C20.7446 16.7781 20.4005 17.1973 20.1974 17.6877C19.9942 18.1782 19.9411 18.7178 20.0447 19.2385C20.1482 19.7592 20.4039 20.2374 20.7792 20.6128C21.1546 20.9882 21.6329 21.2438 22.1535 21.3474C22.6742 21.4509 23.2138 21.3978 23.7043 21.1946C24.1947 20.9915 24.6139 20.6474 24.9089 20.2061Z" stroke="#808080" stroke-width="1.65375"/>
</svg>
