<svg width="28" height="28" viewBox="0 0 28 28" fill="none" xmlns="http://www.w3.org/2000/svg">
<path d="M27.074 11.592H26V11.5367H14V16.87H21.5353C20.436 19.9747 17.482 22.2033 14 22.2033C9.58196 22.2033 5.99996 18.6213 5.99996 14.2033C5.99996 9.78533 9.58196 6.20333 14 6.20333C16.0393 6.20333 17.8946 6.97266 19.3073 8.22933L23.0786 4.45799C20.6973 2.23866 17.512 0.869995 14 0.869995C6.63663 0.869995 0.666626 6.83999 0.666626 14.2033C0.666626 21.5667 6.63663 27.5367 14 27.5367C21.3633 27.5367 27.3333 21.5667 27.3333 14.2033C27.3333 13.3093 27.2413 12.4367 27.074 11.592Z" fill="#FFC107"/>
<path d="M2.20398 7.99733L6.58465 11.21C7.76998 8.27533 10.6406 6.20333 14 6.20333C16.0393 6.20333 17.8946 6.97266 19.3073 8.22933L23.0786 4.45799C20.6973 2.23866 17.512 0.869995 14 0.869995C8.87865 0.869995 4.43731 3.76133 2.20398 7.99733Z" fill="#FF3D00"/>
<path d="M14 27.5366C17.444 27.5366 20.5733 26.2186 22.9393 24.0753L18.8127 20.5833C17.429 21.6355 15.7383 22.2047 14 22.2033C10.532 22.2033 7.58734 19.9919 6.478 16.9059L2.13 20.2559C4.33667 24.5739 8.81801 27.5366 14 27.5366Z" fill="#4CAF50"/>
<path d="M27.074 11.592H26V11.5366H14V16.87H21.5353C21.0095 18.3476 20.0622 19.6387 18.8107 20.584L18.8127 20.5826L22.9393 24.0746C22.6473 24.34 27.3333 20.87 27.3333 14.2033C27.3333 13.3093 27.2413 12.4366 27.074 11.592Z" fill="#1976D2"/>
</svg>
