<svg width="21" height="29" viewBox="0 0 21 29" fill="none" xmlns="http://www.w3.org/2000/svg">
<path d="M10.3068 0.0371094C4.70984 0.0371094 0.183075 4.56387 0.183075 10.1609C0.183075 17.7537 10.3068 28.9621 10.3068 28.9621C10.3068 28.9621 20.4306 17.7537 20.4306 10.1609C20.4306 4.56387 15.9038 0.0371094 10.3068 0.0371094ZM10.3068 13.7765C9.3479 13.7765 8.42825 13.3956 7.75019 12.7175C7.07213 12.0394 6.6912 11.1198 6.6912 10.1609C6.6912 9.20194 7.07213 8.28229 7.75019 7.60423C8.42825 6.92617 9.3479 6.54523 10.3068 6.54523C11.2657 6.54523 12.1854 6.92617 12.8635 7.60423C13.5415 8.28229 13.9224 9.20194 13.9224 10.1609C13.9224 11.1198 13.5415 12.0394 12.8635 12.7175C12.1854 13.3956 11.2657 13.7765 10.3068 13.7765Z" fill="#FF9565"/>
</svg>
