<svg width="24" height="29" viewBox="0 0 24 29" fill="none" xmlns="http://www.w3.org/2000/svg">
<path d="M19.5387 10.1612V7.2686C19.5387 3.219 16.3568 0.0371704 12.3072 0.0371704C8.25763 0.0371704 5.0758 3.219 5.0758 7.2686V10.1612C2.61712 10.1612 0.736946 12.0413 0.736946 14.5V24.624C0.736946 27.0827 2.61712 28.9629 5.0758 28.9629H19.5387C21.9973 28.9629 23.8775 27.0827 23.8775 24.624V14.5C23.8775 12.0413 21.9973 10.1612 19.5387 10.1612ZM7.96837 7.2686C7.96837 4.80991 9.84854 2.92974 12.3072 2.92974C14.7659 2.92974 16.6461 4.80991 16.6461 7.2686V10.1612H7.96837V7.2686ZM13.8981 19.562L13.7535 19.7066V21.7314C13.7535 22.5992 13.175 23.1777 12.3072 23.1777C11.4395 23.1777 10.8609 22.5992 10.8609 21.7314V19.7066C9.99317 18.8389 9.84854 17.5372 10.7163 16.6694C11.5841 15.8017 12.8857 15.657 13.7535 16.5248C14.6213 17.248 14.7659 18.6942 13.8981 19.562Z" fill="#037743"/>
</svg>
