<svg width="18" height="18" viewBox="0 0 18 18" fill="none" xmlns="http://www.w3.org/2000/svg">
<path d="M10.7315 0C8.22191 1.09902 10.4403 4.43401 8.18623 7.4743C8.18631 7.47468 8.18615 7.47505 8.18623 7.47543C8.36311 8.37251 8.23083 9.37217 7.6193 9.78073C7.83383 9.37348 7.79596 8.5336 7.59685 7.7547C5.75683 3.59534 2.97608 5.59862 1.16107 1.06182C0.877304 5.38734 4.06919 5.06692 5.74961 9.28451C6.70507 9.46673 7.57398 10.1044 7.35235 11.1381C7.02202 10.0808 5.89036 9.73632 4.53075 10.0141C2.67677 10.5645 1.52338 11.9393 0.0319748 11.4795C1.65351 13.2212 3.42486 11.5075 5.56067 12.0414C5.94618 11.8047 6.38324 11.6554 6.78429 11.6625C7.04421 11.6671 7.28859 11.7379 7.49409 11.8925C6.83403 11.7946 5.51909 12.6588 5.05871 13.4715C4.6416 14.638 5.26904 16.1874 4.14924 17.9073C6.58919 17.5513 6.26513 15.2001 7.7788 13.9667C7.55391 13.0662 7.75476 11.9303 8.53119 11.6051C8.21613 11.9986 8.19489 12.9925 8.41187 13.8001C9.08107 15.6227 11.0361 15.4654 12.2823 18C12.438 16.1616 11.2325 14.8816 10.8401 13.5091C9.8756 13.0582 8.93397 12.0702 9.10511 11.2014C9.29718 11.8109 10.4283 12.6704 11.3834 13.0106C13.6865 13.6172 15.4842 12.1783 18 13.8962C16.397 11.0673 14.3067 12.2513 12.1984 10.9211C11.2423 11.1681 10.0929 11.0705 9.64611 10.4108C10.0361 10.6134 10.8215 10.5908 11.5724 10.4178C11.5736 10.4174 11.5748 10.4171 11.576 10.4167C15.3071 9.02795 15.0688 4.71805 17.9244 4.4006C14.7389 3.06488 14.0164 7.62326 11.0102 8.24506C10.4313 9.19283 9.52675 9.87211 8.51928 9.90158C8.95268 9.61063 9.68519 9.02637 10.2225 8.312C10.2192 8.31189 10.2161 8.31207 10.213 8.312C12.1355 5.85724 9.42134 3.25653 10.7314 7.50415e-05L10.7315 0ZM15.8906 1.86543C14.4772 1.8723 13.0066 3.3791 13.0287 5.37315C14.0779 3.07719 15.9075 2.65523 17.9421 3.44915C17.459 2.33042 16.6834 1.86156 15.8906 1.86543ZM7.36887 1.88769C7.34876 1.88721 7.32805 1.88792 7.30749 1.88882C7.11919 1.89723 6.91151 1.96338 6.68621 2.10003C7.82649 2.85453 8.39066 4.23174 7.88266 6.28469C8.98076 4.65389 8.63717 1.91686 7.36891 1.88766L7.36887 1.88769ZM0 4.83345V6.35388C1.4787 6.47945 2.89368 7.18373 4.15041 8.61575C3.65091 6.59061 1.81618 5.17219 0 4.83345ZM4.826 12.4509C2.52798 12.7613 2.54234 13.9256 0.32126 13.6768C2.19462 15.2993 3.21158 13.365 4.826 12.4509ZM15.1618 13.6874C14.3203 13.6949 13.2012 13.9274 12.1122 13.9901C13.5813 14.7038 16.0648 13.8129 16.5035 15.1023C16.712 13.9592 16.1155 13.6789 15.1618 13.6874H15.1618Z" fill="white"/>
</svg>
