<svg width="30" height="20" viewBox="0 0 30 20" fill="none" xmlns="http://www.w3.org/2000/svg">
<path d="M29.6186 2.97219C29.5031 2.90398 29.3714 2.868 29.2373 2.868C29.1031 2.868 28.9714 2.90398 28.8559 2.97219L22.8814 6.39168V5.15863C22.8814 3.8775 22.3724 2.64884 21.4665 1.74295C20.5606 0.837052 19.332 0.328125 18.0508 0.328125H1.77966C1.30767 0.328125 0.855002 0.515625 0.521251 0.849376C0.187499 1.18313 0 1.63579 0 2.10779V14.3112C0 15.5923 0.508927 16.821 1.41482 17.7269C2.32072 18.6328 3.54938 19.1417 4.83051 19.1417H21.1017C21.5737 19.1417 22.0264 18.9542 22.3601 18.6204C22.6939 18.2867 22.8814 17.834 22.8814 17.362V13.0781L28.8559 16.4976C28.9719 16.5646 29.1034 16.5998 29.2373 16.5998C29.3712 16.5998 29.5027 16.5646 29.6186 16.4976C29.7347 16.4306 29.831 16.3343 29.8979 16.2182C29.9649 16.1022 30.0001 15.9706 30 15.8366V3.63321C30.0001 3.49924 29.9649 3.36762 29.8979 3.25158C29.831 3.13554 29.7347 3.03918 29.6186 2.97219ZM21.3559 17.362C21.3559 17.4294 21.3291 17.4941 21.2815 17.5418C21.2338 17.5895 21.1691 17.6163 21.1017 17.6163H4.83051C3.95498 17.6129 3.11626 17.2636 2.49716 16.6445C1.87806 16.0254 1.52877 15.1867 1.52542 14.3112V2.10779C1.52542 2.04036 1.55221 1.97569 1.59989 1.92801C1.64757 1.88033 1.71223 1.85355 1.77966 1.85355H18.0508C18.9264 1.8569 19.7651 2.20619 20.3842 2.82528C21.0033 3.44438 21.3526 4.2831 21.3559 5.15863V17.362ZM28.4746 14.5273L22.8814 11.3239V8.14592L28.4746 4.94253V14.5273Z" fill="#808080"/>
</svg>
